{"title":"Billy Connolly - Live in New York (2005) DVDRip XviD AC3 peaSoup","uid":8845922,"size":734722048,"categoryP":"video","categoryS":"movies","magnet":"?xt=urn:btih:8e1fe6d50d809197380a95eef2670024913d2871&amp;dn=Billy+Connolly+-+Live+in+New+York+%282005%29+DVDRip+XviD+AC3+peaSoup&amp;tr=udp%3A%2F%2Ftracker.openbittorrent.com%3A80&amp;tr=udp%3A%2F%2Fopen.demonii.com%3A1337&amp;tr=udp%3A%2F%2Ftracker.coppersurfer.tk%3A6969&amp;tr=udp%3A%2F%2Fexodus.desync.com%3A6969","seeders":2,"leechers":1,"uploader":"peaSoup","files":-1,"time":1377384091,"description":" &lt;a href=&quot;http://imageshack.us/a/img443/2271/9084.jpg&quot; rel=&quot;nofollow&quot; target=&quot;_NEW&quot;&gt;http://imageshack.us/a/img443/2271/9084.jpg&lt;/a&gt;                                         &lt;a href=&quot; http://imageshack.us/a/img819/5655/wfet.jpg&quot; rel=&quot;nofollow&quot; target=&quot;_NEW&quot;&gt; http://imageshack.us/a/img819/5655/wfet.jpg&lt;/a&gt;                                         &lt;a href=&quot; http://imageshack.us/a/img15/9086/ucd1.jpg&quot; rel=&quot;nofollow&quot; target=&quot;_NEW&quot;&gt; http://imageshack.us/a/img15/9086/ucd1.jpg&lt;/a&gt;                                          &lt;a href=&quot; http://imageshack.us/a/img707/9950/m0lo.jpg&quot; rel=&quot;nofollow&quot; target=&quot;_NEW&quot;&gt; http://imageshack.us/a/img707/9950/m0lo.jpg&lt;/a&gt;                                         &lt;a href=&quot; http://imageshack.us/a/img849/8850/dmfd.jpg&quot; rel=&quot;nofollow&quot; target=&quot;_NEW&quot;&gt; http://imageshack.us/a/img849/8850/dmfd.jpg&lt;/a&gt;                                          Format                                   : AVI\nFormat/Info                              : Audio Video Interleave\nFile size                                : 701 MiB\nDuration                                 : 1h 33mn\nOverall bit rate                         : 1 053 Kbps\nWriting application                      : VirtualDubMod 1.5.4.1 (build 2178/release)\nWriting library                          : VirtualDubMod build 2178/release\n\nVideo\nID                                       : 0\nFormat                                   : MPEG-4 Visual\nFormat profile                           : Advanced Simple@L5\nFormat settings, BVOP                    : 1\nFormat settings, QPel                    : No\nFormat settings, GMC                     : No warppoints\nFormat settings, Matrix                  : Custom\nCodec ID                                 : XVID\nCodec ID/Hint                            : XviD\nDuration                                 : 1h 33mn\nBit rate                                 : 854 Kbps\nWidth                                    : 656 pixels\nHeight                                   : 496 pixels\nDisplay aspect ratio                     : 4:3\nFrame rate                               : 25.000 fps\nColor space                              : YUV\nChroma subsampling                       : 4:2:0\nBit depth                                : 8 bits\nScan type                                : Progressive\nCompression mode                         : Lossy\nBits/(Pixel*Frame)                       : 0.105\nStream size                              : 568 MiB (81%)\nWriting library                          : XviD 1.2.1 (UTC 2008-12-04)\n\nAudio\nID                                       : 1\nFormat                                   : AC-3\nFormat/Info                              : Audio Coding 3\nMode extension                           : CM (complete main)\nFormat settings, Endianness              : Big\nCodec ID                                 : 2000\nDuration                                 : 1h 32mn\nBit rate mode                            : Constant\nBit rate                                 : 192 Kbps\nChannel(s)                               : 2 channels\nChannel positions                        : Front: L R\nSampling rate                            : 48.0 KHz\nBit depth                                : 16 bits\nCompression mode                         : Lossy\nStream size                              : 128 MiB (18%)\nAlignment                                : Split accross interleaves\nInterleave, duration                     : 96 ms (2.40 video frames)\nInterleave, preload duration             : 96 ms\nLanguage                                 : English\n\n","torrent":{"xt":"urn:btih:8e1fe6d50d809197380a95eef2670024913d2871","amp;dn":"Billy+Connolly+-+Live+in+New+York+%282005%29+DVDRip+XviD+AC3+peaSoup","amp;tr":["udp%3A%2F%2Ftracker.openbittorrent.com%3A80","udp%3A%2F%2Fopen.demonii.com%3A1337","udp%3A%2F%2Ftracker.coppersurfer.tk%3A6969","udp%3A%2F%2Fexodus.desync.com%3A6969"],"infoHash":"8e1fe6d50d809197380a95eef2670024913d2871","infoHashBuffer":{"type":"Buffer","data":[142,31,230,213,13,128,145,151,56,10,149,238,242,103,0,36,145,61,40,113]},"announce":[],"urlList":[]}}